<svg width="270" height="386" viewBox="0 0 270 386" fill="none" xmlns="http://www.w3.org/2000/svg">
<path d="M166.667 1.42921C155.067 3.96255 149.2 6.36255 128.667 17.2959C119.2 22.4959 95.2 35.1625 75.6 45.6959C55.8667 56.2292 36.8 67.0292 33.0667 69.8292C19.2 80.3625 7.06667 98.7625 2.66667 116.229C0.133333 126.229 0 131.029 0 252.229V377.829L3.06667 380.629C7.6 384.896 12.2667 384.229 25.0667 377.296C70.4 353.029 73.4667 351.163 75.3333 347.429C77.0667 344.229 77.3333 329.029 77.3333 243.296C77.3333 148.496 77.4667 142.629 79.8667 137.563C81.2 134.629 83.7333 130.896 85.4667 129.429C88.5333 126.763 91.7333 124.896 117.333 111.296C123.6 107.963 137.867 100.363 149.067 94.2292C168 84.0959 170 83.2959 175.467 83.9625C181.867 84.6292 186.8 88.2292 190.133 94.4959C191.733 97.5625 192 115.029 192 199.829C192 313.163 192.4 307.563 183.2 307.563C180.4 307.563 177.6 306.496 176 304.896C173.333 302.229 173.333 300.496 173.333 206.363C173.333 153.563 172.933 109.563 172.533 108.363C172.133 107.163 170.533 106.229 169.067 106.229C164.933 106.229 101.733 140.629 98.6667 144.629C95.8667 147.963 95.8667 148.896 96.4 232.096C96.8 313.029 96.9333 316.496 99.6 324.363C110.8 357.563 137.2 379.696 171.6 385.029C206.267 390.363 242.8 371.029 259.733 338.629C269.6 319.563 269.333 325.029 269.333 192.896C269.333 60.7625 269.6 66.3625 259.733 47.0292C253.2 34.3625 238.267 18.3625 226.667 11.9625C208.667 1.69588 184.933 -2.43745 166.667 1.42921Z" fill="#F4F4F4"/>
</svg>
