<svg width="198" height="166" viewBox="0 0 198 166" fill="none" xmlns="http://www.w3.org/2000/svg">
<path d="M33.1381 1.12444C17.7676 5.1684 5.00596 18.1517 1.0576 33.689C0.493546 35.9593 0 40.9256 0 44.6857C0 54.3345 2.1857 62.0677 6.98015 69.1624L9.09534 72.355L7.96724 78.1726C6.34559 86.8281 6.98015 99.8114 9.44788 108.183C17.4151 134.93 41.8809 155.788 74.7369 163.663C85.6654 166.288 105.478 166.785 117.393 164.728C165.126 156.498 196.713 119.464 190.086 79.5206L188.817 72.2131L190.65 69.659C200.45 55.3278 200.45 34.5404 190.65 19.7125C184.657 10.7023 174.856 3.67852 164.633 1.05349C159.768 -0.223548 149.051 -0.365442 143.692 0.769706C137.417 2.04675 128.815 6.65829 123.739 11.4117L119.227 15.7395L114.291 14.9591C108.157 13.9658 90.1074 13.9658 83.6913 14.8881L78.8263 15.5976L74.1729 11.3408C69.0964 6.65829 61.9753 2.75622 55.3476 1.05349C50.0596 -0.294495 38.3556 -0.294495 33.1381 1.12444ZM53.867 25.1044C58.5204 27.3747 61.0587 30.2126 64.866 37.1654L67.7568 42.4154L71.0706 41.3512C88.5562 35.9593 105.337 35.6046 122.963 40.358L130.226 42.3445L133.116 36.9525C137.911 28.0842 143.622 23.7565 151.871 22.9051C167.594 21.2733 179.933 38.7262 173.305 53.2703C171.683 56.8176 166.607 62.7062 163.082 65.0475L161.601 66.0407L163.223 69.7299C167.665 79.5915 170.414 95.4127 169.568 106.055C168.581 117.903 165.056 129.964 159.838 139.045C158.146 142.025 157.582 142.592 157.371 141.528C156.525 136.562 154.832 131.241 153.14 128.616C152.083 126.913 151.025 125.565 150.813 125.565C150.602 125.565 148.698 126.842 146.583 128.474C133.751 138.194 112.669 144.082 94.5493 143.089C60.6356 141.102 34.1957 121.592 30.1768 95.4836C29.1192 88.4599 30.1768 81.4362 33.5611 72.8516L36.0993 66.5373L31.2344 61.7839C28.2731 59.017 25.7349 55.6825 24.7478 53.625C16.287 35.2498 35.7468 16.1652 53.867 25.1044Z" fill="#141E30"/>
<path d="M94.1263 76.0442C88.0627 78.2435 84.4669 83.4936 84.4669 90.0917C84.4669 96.8316 88.1332 102.011 94.4083 104.139C103.574 107.332 113.516 99.9533 113.516 90.0917C113.516 80.1591 103.363 72.7806 94.1263 76.0442Z" fill="#141E30"/>
<ellipse cx="64.4769" cy="90.1288" rx="9.67485" ry="9.64615" transform="rotate(-90 64.4769 90.1288)" fill="#141E30"/>
<ellipse cx="132.508" cy="90.1288" rx="9.67485" ry="9.64615" transform="rotate(-90 132.508 90.1288)" fill="#141E30"/>
</svg>
